<?xml version="1.0" standalone="no"?>
<!DOCTYPE svg PUBLIC "-//W3C//DTD SVG 20010904//EN"
 "http://www.w3.org/TR/2001/REC-SVG-20010904/DTD/svg10.dtd">
<svg version="1.0" xmlns="http://www.w3.org/2000/svg"
 width="48.000000pt" height="48.000000pt" viewBox="0 0 48.000000 48.000000"
 preserveAspectRatio="xMidYMid meet">

<g transform="translate(0.000000,48.000000) scale(0.100000,-0.100000)"
fill="#000000" stroke="none">
<path d="M138 368 c-57 -23 -78 -36 -78 -49 0 -16 4 -17 26 -9 14 6 41 10 61
10 26 0 34 4 30 14 -9 22 63 39 100 24 16 -7 28 -19 26 -25 -3 -9 7 -13 31
-13 19 0 46 -4 60 -10 22 -8 26 -7 26 9 0 13 -21 26 -81 49 -44 18 -90 32
-102 31 -12 0 -57 -14 -99 -31z"/>
<path d="M120 170 c0 -5 14 -10 30 -10 17 0 30 5 30 10 0 6 -13 10 -30 10 -16
0 -30 -4 -30 -10z"/>
<path d="M300 170 c0 -5 14 -10 30 -10 17 0 30 5 30 10 0 6 -13 10 -30 10 -16
0 -30 -4 -30 -10z"/>
</g>
</svg>
