<svg id="svg" version="1.1" xmlns="http://www.w3.org/2000/svg" xmlns:xlink="http://www.w3.org/1999/xlink" width="400" height="400" viewBox="0, 0, 400,400"><g id="svgg"><path id="path0" d="M175.069 56.443 C 173.493 57.275,172.570 58.823,172.163 61.321 C 172.031 62.132,172.238 61.815,172.730 60.459 C 173.655 57.903,174.464 57.021,176.600 56.241 C 177.505 55.910,177.852 55.652,177.400 55.646 C 176.960 55.640,175.911 55.999,175.069 56.443 M224.992 56.515 C 226.169 57.181,226.762 57.883,227.270 59.208 C 227.647 60.194,227.966 60.769,227.978 60.487 C 228.054 58.698,225.551 55.591,224.046 55.607 C 223.691 55.610,224.116 56.019,224.992 56.515 M144.900 71.076 C 145.285 71.176,145.915 71.176,146.300 71.076 C 146.685 70.975,146.370 70.893,145.600 70.893 C 144.830 70.893,144.515 70.975,144.900 71.076 M267.045 72.392 C 267.509 72.580,268.274 73.223,268.745 73.821 C 269.215 74.419,269.600 74.695,269.600 74.436 C 269.600 73.693,267.713 71.997,266.918 72.025 C 266.315 72.047,266.335 72.105,267.045 72.392 M113.462 80.731 C 113.098 81.134,112.811 81.809,112.825 82.231 C 112.846 82.848,112.928 82.803,113.241 82.000 C 113.455 81.450,113.928 80.775,114.292 80.500 C 114.655 80.225,114.766 80.000,114.538 80.000 C 114.310 80.000,113.826 80.329,113.462 80.731 M112.454 84.638 C 112.425 85.099,112.040 85.802,111.600 86.200 C 110.585 87.118,110.583 87.600,111.592 87.600 C 112.474 87.600,112.980 86.278,112.688 84.741 C 112.529 83.906,112.503 83.894,112.454 84.638 M89.569 89.569 C 88.926 90.212,88.407 90.977,88.416 91.269 C 88.425 91.561,88.699 91.309,89.024 90.708 C 89.350 90.108,90.108 89.350,90.708 89.024 C 91.309 88.699,91.561 88.425,91.269 88.416 C 90.977 88.407,90.212 88.926,89.569 89.569 M328.509 97.200 C 329.069 97.640,329.730 98.000,329.979 98.000 C 331.817 98.000,335.200 101.173,335.200 102.898 C 335.200 103.230,335.459 103.717,335.776 103.980 C 336.694 104.742,334.997 100.461,333.931 99.326 C 333.439 98.803,332.087 98.099,330.926 97.761 C 329.765 97.424,328.711 96.979,328.584 96.774 C 328.457 96.568,328.159 96.400,327.922 96.400 C 327.686 96.400,327.950 96.760,328.509 97.200 M71.196 97.405 C 70.920 97.737,69.934 98.346,69.004 98.757 C 67.296 99.513,65.522 101.446,65.019 103.100 C 64.869 103.595,64.548 104.000,64.306 104.000 C 64.065 104.000,63.971 104.105,64.099 104.232 C 64.451 104.585,66.000 103.642,66.000 103.075 C 66.000 102.350,68.088 100.182,69.480 99.462 C 70.141 99.120,70.982 98.382,71.350 97.820 C 72.084 96.701,71.990 96.448,71.196 97.405 M210.325 97.900 C 209.878 98.658,209.710 99.746,209.784 101.400 C 209.842 102.720,209.915 128.343,209.945 158.340 L 210.000 212.879 211.248 214.045 L 212.496 215.211 282.948 215.193 L 353.400 215.174 353.653 216.287 C 353.792 216.899,353.927 202.086,353.953 183.368 L 354.000 149.336 349.560 149.251 C 344.493 149.154,342.819 148.658,338.858 146.080 C 335.878 144.141,333.721 143.287,328.000 141.783 C 322.755 140.404,321.201 139.743,317.908 137.489 C 314.967 135.475,313.170 134.804,307.439 133.577 C 303.031 132.634,303.142 132.625,298.400 134.325 C 292.856 136.313,290.741 136.466,270.800 136.327 C 246.532 136.158,247.529 136.603,247.268 125.817 C 247.066 117.466,247.776 115.722,252.226 113.630 C 253.202 113.171,254.000 112.695,254.000 112.572 C 254.000 111.909,247.483 109.530,242.654 108.430 C 237.075 107.159,234.457 106.115,231.530 103.996 C 229.844 102.774,225.952 101.372,220.400 99.987 C 218.530 99.520,215.894 98.612,214.543 97.969 C 211.512 96.527,211.137 96.521,210.325 97.900 M186.053 98.273 C 185.312 98.585,182.432 99.449,179.653 100.192 C 173.540 101.827,172.061 102.429,169.161 104.461 C 166.263 106.492,163.721 107.435,158.001 108.600 C 153.207 109.576,150.803 110.369,148.437 111.755 L 147.073 112.554 148.437 113.577 C 152.470 116.604,152.922 117.907,152.735 125.974 C 152.490 136.529,153.326 136.158,129.400 136.327 C 109.781 136.466,107.636 136.312,102.068 134.365 C 96.070 132.268,88.951 133.656,82.322 138.216 C 80.130 139.724,77.228 140.747,71.050 142.191 C 66.084 143.351,63.995 144.193,60.598 146.403 C 57.090 148.686,55.406 149.156,50.395 149.252 L 46.000 149.336 46.047 183.368 C 46.073 202.086,46.208 216.899,46.347 216.287 L 46.600 215.174 117.052 215.193 L 187.504 215.211 188.752 214.045 L 190.000 212.879 190.027 158.740 C 190.041 128.963,190.140 103.473,190.247 102.097 C 190.547 98.214,189.172 96.960,186.053 98.273 M46.047 296.871 C 46.005 354.615,46.063 361.206,46.624 361.767 C 47.185 362.328,54.322 362.392,116.835 362.398 C 186.160 362.404,191.178 362.337,190.409 361.411 C 190.191 361.148,190.029 359.598,190.049 357.966 C 190.069 356.335,190.066 328.477,190.043 296.060 L 190.000 237.121 188.752 235.955 L 187.504 234.789 117.052 234.807 L 46.600 234.826 46.347 233.713 C 46.208 233.101,46.073 261.522,46.047 296.871 M353.527 233.814 L 353.400 234.827 282.948 234.808 L 212.496 234.789 211.248 235.955 L 210.000 237.121 209.957 296.060 C 209.934 328.477,209.931 356.335,209.951 357.966 C 209.971 359.598,209.809 361.148,209.591 361.411 C 208.822 362.337,213.840 362.404,283.165 362.398 C 345.678 362.392,352.815 362.328,353.376 361.767 C 353.967 361.176,354.416 232.800,353.827 232.800 C 353.731 232.800,353.596 233.256,353.527 233.814 M148.400 247.571 C 152.035 248.968,152.800 250.896,152.800 258.662 C 152.800 269.865,152.569 269.959,125.000 269.949 C 96.900 269.939,97.048 270.005,97.279 257.728 C 97.432 249.561,98.273 248.071,103.200 247.239 C 106.819 246.628,146.709 246.921,148.400 247.571 M298.400 247.571 C 302.035 248.968,302.800 250.896,302.800 258.662 C 302.800 269.865,302.569 269.959,275.000 269.949 C 246.900 269.939,247.048 270.005,247.279 257.728 C 247.432 249.561,248.273 248.071,253.200 247.239 C 256.819 246.628,296.709 246.921,298.400 247.571 " stroke="none" fill="#fc9c04" fill-rule="evenodd"></path><path id="path1" d="M190.790 54.128 C 190.674 54.252,186.984 54.434,182.590 54.532 C 171.987 54.768,171.748 54.883,171.325 59.920 L 171.101 62.600 166.731 62.467 C 164.168 62.389,162.160 62.501,161.874 62.738 C 161.598 62.968,160.178 63.063,158.594 62.959 C 154.723 62.704,154.598 62.837,154.610 67.187 L 154.619 70.800 153.010 70.850 C 152.124 70.878,148.452 70.881,144.848 70.858 C 141.245 70.836,138.137 70.915,137.942 71.036 C 137.747 71.156,136.157 71.287,134.407 71.327 C 130.345 71.420,129.997 71.742,129.602 75.779 C 129.225 79.626,129.883 79.302,122.518 79.268 C 114.661 79.233,113.274 79.413,112.737 80.540 C 112.512 81.013,111.399 81.850,110.264 82.400 C 108.532 83.239,108.039 83.737,107.200 85.494 L 106.200 87.588 104.200 87.621 C 103.100 87.639,99.281 87.687,95.714 87.727 C 87.840 87.816,88.068 87.678,87.726 92.529 L 87.481 96.000 83.441 96.028 C 66.145 96.150,64.411 96.626,63.487 101.516 C 62.907 104.583,63.448 104.405,54.320 104.515 C 49.595 104.572,47.085 104.754,46.777 105.063 C 46.036 105.804,45.785 110.656,46.446 111.470 C 46.785 111.888,46.811 112.040,46.515 111.862 C 46.137 111.635,46.024 115.747,46.008 130.385 C 45.988 148.099,46.028 149.202,46.693 149.240 C 53.204 149.607,56.803 148.873,60.598 146.403 C 63.995 144.193,66.084 143.351,71.050 142.191 C 77.228 140.747,80.130 139.724,82.322 138.216 C 86.313 135.471,92.851 133.203,96.781 133.201 C 98.471 133.200,98.705 133.050,101.382 130.259 C 104.916 126.572,106.149 125.951,113.857 123.973 C 120.425 122.287,121.732 121.770,124.000 119.958 C 127.053 117.518,129.264 116.858,141.979 114.593 C 146.292 113.825,147.745 113.358,147.425 112.840 C 146.835 111.885,151.962 109.830,158.001 108.600 C 163.739 107.431,166.264 106.492,169.197 104.435 C 171.957 102.499,174.317 101.539,179.634 100.191 C 181.862 99.627,184.593 98.819,185.704 98.397 C 186.815 97.975,187.893 97.734,188.099 97.861 C 188.306 97.989,189.223 97.375,190.137 96.498 C 195.506 91.345,205.482 90.991,209.994 95.793 C 210.514 96.347,211.197 96.800,211.513 96.800 C 211.828 96.800,213.191 97.326,214.543 97.969 C 215.894 98.612,218.530 99.520,220.400 99.987 C 225.952 101.372,229.844 102.774,231.530 103.996 C 234.457 106.115,237.075 107.159,242.654 108.430 C 248.202 109.694,254.268 112.042,253.828 112.755 C 253.411 113.430,257.069 114.357,265.895 115.813 C 271.197 116.688,274.491 117.810,276.684 119.489 C 279.201 121.415,282.956 122.965,288.566 124.391 C 294.730 125.959,296.707 127.020,298.992 129.989 C 300.017 131.322,301.235 132.468,301.722 132.558 C 302.205 132.647,304.310 133.035,306.400 133.420 C 312.184 134.485,314.937 135.454,317.863 137.458 C 321.202 139.744,322.741 140.401,328.000 141.783 C 333.721 143.287,335.878 144.141,338.858 146.080 C 343.143 148.869,346.554 149.614,353.321 149.240 C 354.248 149.189,354.226 105.433,353.299 104.861 C 353.023 104.690,349.783 104.520,346.099 104.483 C 337.689 104.397,337.282 104.316,337.031 102.671 C 336.925 101.972,336.736 100.754,336.613 99.964 C 336.095 96.656,333.928 96.142,320.000 96.024 C 314.951 95.980,312.059 95.803,311.800 95.520 C 311.520 95.214,311.567 95.178,311.955 95.399 C 312.806 95.884,312.363 89.392,311.486 88.514 C 310.642 87.671,304.099 87.189,304.604 88.007 C 304.835 88.380,304.767 88.426,304.362 88.174 C 303.838 87.847,301.983 87.712,296.954 87.632 L 294.909 87.600 294.669 85.851 C 294.002 80.984,290.008 79.157,280.243 79.250 C 277.579 79.275,274.383 79.275,273.141 79.248 L 270.881 79.200 270.612 76.300 C 270.117 70.969,270.567 71.174,258.926 70.991 L 250.053 70.852 247.991 68.726 C 246.564 67.254,245.862 66.170,245.710 65.200 C 245.421 63.368,244.932 62.799,243.651 62.806 C 242.826 62.811,242.729 62.895,243.200 63.200 C 243.561 63.433,243.610 63.590,243.324 63.594 C 243.062 63.597,242.736 63.420,242.600 63.200 C 242.464 62.980,242.173 62.800,241.953 62.800 C 241.733 62.800,241.663 62.978,241.797 63.195 C 242.070 63.636,240.885 63.296,240.133 62.716 C 239.876 62.519,237.221 62.412,234.233 62.479 L 228.799 62.600 228.797 60.600 C 228.795 57.930,228.137 55.701,227.202 55.201 C 225.993 54.554,220.513 54.208,219.874 54.739 C 219.573 54.989,219.221 55.088,219.093 54.959 C 218.536 54.403,191.279 53.602,190.790 54.128 M180.400 54.967 C 180.400 55.059,179.235 55.522,177.811 55.996 C 174.948 56.949,173.570 58.236,172.786 60.690 C 172.232 62.422,171.496 63.439,171.858 61.971 C 171.990 61.437,172.121 60.612,172.149 60.138 C 172.177 59.664,172.363 59.377,172.563 59.501 C 172.763 59.624,172.824 59.337,172.700 58.862 C 172.576 58.387,172.638 58.100,172.837 58.223 C 173.037 58.346,173.222 58.257,173.250 58.024 C 173.278 57.791,173.322 57.375,173.350 57.101 C 173.378 56.826,173.670 56.583,174.000 56.561 C 175.408 56.469,175.634 56.379,175.403 56.005 C 175.263 55.778,175.423 55.711,175.779 55.847 C 176.121 55.978,176.400 55.903,176.400 55.680 C 176.400 55.457,176.718 55.358,177.106 55.459 C 177.494 55.561,178.259 55.465,178.806 55.247 C 179.918 54.804,180.400 54.719,180.400 54.967 M224.106 55.498 C 224.360 55.413,225.093 55.806,225.734 56.372 C 226.375 56.937,227.070 57.351,227.279 57.290 C 227.488 57.230,227.544 57.367,227.403 57.595 C 227.262 57.823,227.406 58.529,227.722 59.164 C 228.039 59.799,228.166 60.531,228.005 60.791 C 227.826 61.081,227.622 60.809,227.478 60.088 C 226.970 57.552,223.696 55.181,221.474 55.740 C 220.639 55.951,220.633 55.935,221.355 55.396 C 221.908 54.982,222.316 54.941,222.877 55.241 C 223.299 55.467,223.852 55.583,224.106 55.498 M156.068 64.625 C 155.701 65.116,155.246 65.424,155.057 65.309 C 154.869 65.194,154.959 64.945,155.257 64.756 C 155.556 64.567,155.654 64.409,155.476 64.406 C 154.889 64.395,155.552 63.733,156.151 63.733 C 156.641 63.733,156.627 63.879,156.068 64.625 M135.200 72.602 C 135.200 72.697,134.946 72.678,134.636 72.559 C 133.314 72.051,130.796 74.223,131.461 75.298 C 131.616 75.549,131.534 75.606,131.262 75.438 C 131.008 75.281,130.800 75.373,130.800 75.643 C 130.800 75.913,130.697 76.030,130.571 75.904 C 130.145 75.478,131.630 73.169,132.619 72.718 C 133.159 72.473,133.600 72.114,133.600 71.922 C 133.600 71.729,133.960 71.765,134.400 72.000 C 134.840 72.235,135.200 72.506,135.200 72.602 M268.713 72.886 C 269.699 74.205,270.433 76.800,269.820 76.800 C 269.459 76.800,269.351 76.509,269.500 75.937 C 269.654 75.351,269.579 75.166,269.268 75.358 C 268.968 75.543,268.894 75.421,269.053 75.006 C 269.357 74.215,268.046 72.697,267.304 72.981 C 267.004 73.097,266.859 73.028,266.982 72.830 C 267.105 72.631,266.979 72.368,266.702 72.244 C 266.426 72.121,266.650 72.061,267.200 72.110 C 267.750 72.160,268.431 72.509,268.713 72.886 M114.000 80.800 C 113.189 81.611,113.110 81.896,113.001 84.400 C 112.882 87.139,112.532 87.600,110.573 87.600 C 108.321 87.600,108.348 87.265,110.800 84.800 C 111.900 83.694,112.800 82.510,112.800 82.168 C 112.800 81.186,113.573 80.000,114.214 80.000 C 114.657 80.000,114.605 80.195,114.000 80.800 M311.381 90.228 C 311.732 90.763,311.834 91.200,311.609 91.200 C 311.384 91.200,311.200 91.009,311.200 90.776 C 311.200 90.543,311.040 90.451,310.845 90.572 C 310.650 90.693,310.515 90.478,310.545 90.096 C 310.579 89.662,310.338 89.421,309.904 89.455 C 309.522 89.485,309.307 89.350,309.428 89.155 C 309.549 88.960,309.457 88.800,309.224 88.800 C 308.991 88.800,308.800 88.616,308.800 88.391 C 308.800 87.789,310.642 89.100,311.381 90.228 M91.495 88.675 C 91.107 88.777,90.910 89.055,91.057 89.292 C 91.219 89.554,91.136 89.607,90.844 89.427 C 90.208 89.034,89.106 89.979,89.377 90.685 C 89.495 90.991,89.427 91.140,89.226 91.016 C 89.025 90.892,88.769 91.107,88.656 91.495 C 88.532 91.922,88.481 91.815,88.526 91.223 C 88.624 89.934,89.951 88.602,91.200 88.539 C 91.769 88.511,91.896 88.569,91.495 88.675 M328.584 96.774 C 328.711 96.979,329.765 97.424,330.926 97.761 C 332.087 98.099,333.439 98.803,333.931 99.326 C 334.997 100.461,336.694 104.742,335.776 103.980 C 335.459 103.717,335.200 103.230,335.200 102.898 C 335.200 101.173,331.817 98.000,329.979 98.000 C 329.730 98.000,329.069 97.640,328.509 97.200 C 327.950 96.760,327.686 96.400,327.922 96.400 C 328.159 96.400,328.457 96.568,328.584 96.774 M71.350 97.820 C 70.982 98.382,70.141 99.120,69.480 99.462 C 68.088 100.182,66.000 102.350,66.000 103.075 C 66.000 103.642,64.451 104.585,64.099 104.232 C 63.971 104.105,64.065 104.000,64.306 104.000 C 64.548 104.000,64.869 103.595,65.019 103.100 C 65.522 101.446,67.296 99.513,69.004 98.757 C 69.934 98.346,70.920 97.737,71.196 97.405 C 71.990 96.448,72.084 96.701,71.350 97.820 M352.311 105.423 C 352.800 105.765,353.200 106.250,353.200 106.499 C 353.200 106.749,352.975 106.655,352.700 106.292 C 352.425 105.928,351.750 105.455,351.200 105.241 C 350.650 105.026,350.475 104.839,350.811 104.825 C 351.147 104.811,351.822 105.080,352.311 105.423 M49.372 105.555 C 49.493 105.750,49.278 105.885,48.896 105.855 C 48.513 105.825,48.235 105.995,48.278 106.233 C 48.321 106.472,48.126 106.667,47.844 106.667 C 47.563 106.667,47.333 106.435,47.333 106.151 C 47.333 105.867,47.471 105.720,47.639 105.824 C 47.807 105.928,48.058 105.830,48.196 105.607 C 48.506 105.105,49.079 105.080,49.372 105.555 " stroke="none" fill="#f44633" fill-rule="evenodd"></path><path id="path2" d="M133.812 117.064 C 130.001 117.753,127.910 118.632,124.417 121.011 C 122.255 122.484,120.896 123.027,116.600 124.137 C 111.281 125.512,108.493 126.655,106.900 128.115 C 105.607 129.299,105.679 129.388,109.100 130.852 L 112.200 132.178 125.437 132.325 C 146.535 132.559,148.000 132.081,148.000 124.956 C 148.000 119.325,147.603 118.853,141.664 117.433 C 139.288 116.865,137.266 116.420,137.172 116.444 C 137.077 116.468,135.565 116.747,133.812 117.064 M258.221 117.407 C 252.535 118.688,252.000 119.336,252.000 124.931 C 252.000 131.991,253.180 132.399,273.616 132.399 C 287.274 132.400,288.812 132.221,292.892 130.153 L 294.970 129.100 293.785 128.128 C 292.074 126.725,290.110 125.767,287.388 125.007 C 281.519 123.370,278.625 122.217,276.166 120.533 C 272.201 117.818,271.131 117.492,263.400 116.641 C 262.740 116.569,260.409 116.913,258.221 117.407 M107.614 251.449 C 102.485 252.308,102.000 252.909,102.000 258.405 C 102.000 263.975,102.221 264.216,108.288 265.255 C 117.442 266.822,142.322 266.097,146.088 264.153 C 148.440 262.939,149.016 255.107,146.900 253.113 C 144.518 250.868,117.829 249.738,107.614 251.449 M257.614 251.449 C 252.485 252.308,252.000 252.909,252.000 258.405 C 252.000 263.975,252.221 264.216,258.288 265.255 C 267.442 266.822,292.322 266.097,296.088 264.153 C 298.440 262.939,299.016 255.107,296.900 253.113 C 294.518 250.868,267.829 249.738,257.614 251.449 " stroke="none" fill="#9e6004" fill-rule="evenodd"></path><path id="path3" d="M198.000 92.766 C 194.750 93.019,192.401 94.102,190.265 96.332 L 189.156 97.490 190.078 99.164 C 192.584 103.715,192.360 97.956,192.381 158.222 L 192.400 213.045 191.384 214.422 C 190.825 215.179,189.700 216.207,188.884 216.705 L 187.400 217.610 117.103 217.580 C 78.439 217.563,46.624 217.661,46.403 217.798 C 45.860 218.134,45.860 231.866,46.403 232.202 C 46.624 232.339,78.405 232.434,117.027 232.413 L 187.248 232.376 188.818 233.258 C 189.682 233.744,190.839 234.790,191.389 235.584 L 192.389 237.027 192.406 298.733 C 192.416 332.671,192.330 360.590,192.215 360.776 C 192.101 360.961,192.449 361.402,192.989 361.756 C 195.309 363.276,208.778 362.383,207.785 360.776 C 207.670 360.590,207.584 332.671,207.594 298.733 L 207.611 237.027 208.611 235.584 C 209.161 234.790,210.318 233.744,211.182 233.258 L 212.752 232.376 282.973 232.413 C 321.595 232.434,353.376 232.339,353.597 232.202 C 354.140 231.866,354.140 218.134,353.597 217.798 C 353.376 217.661,321.561 217.563,282.897 217.580 L 212.600 217.610 211.116 216.705 C 210.300 216.207,209.175 215.179,208.616 214.422 L 207.600 213.045 207.600 158.083 L 207.600 103.122 209.254 99.944 L 210.907 96.766 209.977 95.776 C 209.466 95.232,207.973 94.249,206.660 93.593 C 204.163 92.346,203.820 92.313,198.000 92.766 M146.566 113.588 C 146.108 113.773,144.038 114.227,141.966 114.596 C 129.137 116.880,127.368 117.403,124.153 119.856 C 121.525 121.862,120.529 122.261,113.857 123.973 C 106.146 125.952,104.917 126.572,101.372 130.268 L 98.543 133.219 100.572 133.776 C 105.725 135.191,109.205 135.400,127.611 135.400 L 145.822 135.400 147.811 134.392 C 152.875 131.825,153.773 118.110,149.134 114.205 C 147.828 113.107,147.782 113.096,146.566 113.588 M252.167 113.588 C 246.418 115.913,246.434 131.432,252.189 134.381 L 254.178 135.400 272.589 135.400 C 291.305 135.400,294.883 135.185,299.953 133.754 L 302.106 133.147 300.908 132.073 C 300.248 131.483,299.123 130.227,298.407 129.283 C 296.727 127.067,294.256 125.838,288.566 124.391 C 282.956 122.965,279.201 121.415,276.684 119.489 C 274.395 117.737,271.030 116.637,264.808 115.605 C 258.514 114.562,256.395 114.132,255.074 113.629 C 253.769 113.132,253.310 113.125,252.167 113.588 M141.664 117.433 C 147.603 118.853,148.000 119.325,148.000 124.956 C 148.000 132.081,146.535 132.559,125.437 132.325 L 112.200 132.178 109.100 130.852 C 105.679 129.388,105.607 129.299,106.900 128.115 C 108.493 126.655,111.281 125.512,116.600 124.137 C 120.896 123.027,122.255 122.484,124.417 121.011 C 127.910 118.632,130.001 117.753,133.812 117.064 C 135.565 116.747,137.077 116.468,137.172 116.444 C 137.266 116.420,139.288 116.865,141.664 117.433 M267.705 117.183 C 271.452 117.678,272.744 118.190,276.166 120.533 C 278.625 122.217,281.519 123.370,287.388 125.007 C 290.110 125.767,292.074 126.725,293.785 128.128 L 294.970 129.100 292.892 130.153 C 286.281 133.504,256.631 133.487,253.128 130.131 C 251.403 128.478,251.398 121.487,253.121 119.558 C 254.334 118.201,260.826 116.358,263.400 116.641 C 264.060 116.714,265.997 116.958,267.705 117.183 M106.600 247.960 C 100.060 248.539,97.993 251.072,98.009 258.487 C 98.029 268.108,99.319 268.739,119.600 269.062 C 149.704 269.541,152.014 268.774,151.991 258.313 C 151.979 252.499,150.799 250.193,146.995 248.549 C 145.260 247.800,113.623 247.338,106.600 247.960 M256.600 247.960 C 250.060 248.539,247.993 251.072,248.009 258.487 C 248.029 268.108,249.319 268.739,269.600 269.062 C 299.704 269.541,302.014 268.774,301.991 258.313 C 301.979 252.499,300.799 250.193,296.995 248.549 C 295.260 247.800,263.623 247.338,256.600 247.960 M142.030 251.438 C 147.524 252.369,148.000 252.900,148.000 258.101 C 148.000 262.426,147.721 263.311,146.088 264.153 C 140.411 267.083,106.231 266.635,102.988 263.588 C 101.394 262.091,101.483 254.645,103.114 253.083 C 105.432 250.861,131.993 249.739,142.030 251.438 M292.030 251.438 C 297.524 252.369,298.000 252.900,298.000 258.101 C 298.000 262.426,297.721 263.311,296.088 264.153 C 290.411 267.083,256.231 266.635,252.988 263.588 C 251.394 262.091,251.483 254.645,253.114 253.083 C 255.432 250.861,281.993 249.739,292.030 251.438 " stroke="none" fill="#d47c04" fill-rule="evenodd"></path><path id="path4" d="M110.700 84.837 C 108.584 87.036,108.374 87.610,109.700 87.578 C 110.803 87.551,112.186 85.850,112.527 84.100 C 112.666 83.385,112.740 82.814,112.690 82.831 C 112.641 82.848,111.745 83.751,110.700 84.837 M208.475 101.419 L 207.600 103.221 207.600 158.133 L 207.600 213.045 208.616 214.422 C 209.175 215.179,210.300 216.207,211.116 216.705 L 212.600 217.610 282.897 217.580 C 321.561 217.563,353.373 217.660,353.591 217.795 C 353.918 217.997,353.744 215.731,353.398 215.289 C 353.350 215.228,321.628 215.185,282.904 215.194 L 212.496 215.211 211.248 214.045 L 210.000 212.879 209.937 158.140 C 209.860 91.587,210.031 98.218,208.475 101.419 M190.361 101.076 C 190.339 101.474,190.282 102.160,190.234 102.600 C 190.187 103.040,190.114 128.033,190.074 158.140 L 190.000 212.879 188.752 214.045 L 187.504 215.211 117.096 215.194 C 78.372 215.185,46.650 215.228,46.602 215.289 C 46.256 215.731,46.082 217.997,46.409 217.795 C 46.627 217.660,78.439 217.563,117.103 217.580 L 187.400 217.610 188.884 216.705 C 189.700 216.207,190.825 215.179,191.384 214.422 L 192.400 213.045 192.400 158.371 C 192.400 110.925,192.321 103.510,191.806 102.276 C 191.114 100.619,190.417 100.041,190.361 101.076 M249.280 115.583 C 247.433 117.349,247.104 119.024,247.268 125.817 C 247.529 136.591,246.564 136.156,270.600 136.332 C 288.881 136.467,293.277 136.233,296.671 134.946 L 298.200 134.366 296.559 134.578 C 289.405 135.504,285.401 135.651,270.537 135.532 L 254.177 135.400 252.188 134.381 C 247.518 131.987,246.202 120.652,249.997 115.518 C 251.061 114.080,250.832 114.101,249.280 115.583 M150.880 116.800 C 153.493 123.576,151.974 132.281,147.811 134.392 L 145.823 135.400 129.694 135.535 C 115.030 135.658,110.799 135.499,104.200 134.581 L 102.600 134.359 103.819 134.926 C 106.557 136.200,111.456 136.468,129.600 136.333 C 153.296 136.156,152.491 136.517,152.735 125.974 C 152.883 119.604,152.556 117.663,151.021 115.800 L 150.032 114.600 150.880 116.800 M46.263 233.280 C 46.402 234.006,46.554 234.650,46.602 234.711 C 46.650 234.772,78.372 234.815,117.096 234.806 L 187.504 234.789 188.752 235.955 L 190.000 237.121 190.043 296.060 C 190.066 328.477,190.068 356.385,190.046 358.078 C 190.019 360.131,190.171 361.263,190.503 361.478 C 190.818 361.682,190.414 361.889,189.400 362.043 C 188.166 362.231,188.487 362.297,190.800 362.331 C 193.576 362.371,193.740 362.329,193.000 361.759 C 192.560 361.421,192.250 360.960,192.312 360.737 C 192.373 360.513,192.416 332.587,192.406 298.678 L 192.389 237.027 191.389 235.584 C 190.839 234.790,189.682 233.744,188.818 233.258 L 187.248 232.376 117.027 232.413 C 78.405 232.434,46.627 232.340,46.409 232.205 C 46.159 232.051,46.105 232.450,46.263 233.280 M353.508 232.225 C 353.384 232.349,321.663 232.434,283.018 232.413 L 212.752 232.376 211.182 233.258 C 210.318 233.744,209.161 234.790,208.611 235.584 L 207.611 237.027 207.594 298.678 C 207.584 332.587,207.627 360.513,207.688 360.737 C 207.750 360.960,207.440 361.421,207.000 361.759 C 206.260 362.329,206.424 362.371,209.200 362.331 C 211.513 362.297,211.834 362.231,210.600 362.043 C 209.586 361.889,209.182 361.682,209.497 361.478 C 209.829 361.263,209.981 360.131,209.954 358.078 C 209.932 356.385,209.934 328.477,209.957 296.060 L 210.000 237.121 211.248 235.955 L 212.496 234.789 282.948 234.806 L 353.400 234.823 353.669 233.514 C 353.946 232.171,353.903 231.830,353.508 232.225 M103.200 247.239 C 98.273 248.071,97.432 249.561,97.279 257.728 C 97.048 270.005,96.900 269.939,125.000 269.949 C 152.569 269.959,152.800 269.865,152.800 258.662 C 152.800 250.896,152.035 248.968,148.400 247.571 C 146.709 246.921,106.819 246.628,103.200 247.239 M253.200 247.239 C 248.273 248.071,247.432 249.561,247.279 257.728 C 247.048 270.005,246.900 269.939,275.000 269.949 C 302.569 269.959,302.800 269.865,302.800 258.662 C 302.800 250.896,302.035 248.968,298.400 247.571 C 296.709 246.921,256.819 246.628,253.200 247.239 M146.995 248.549 C 153.682 251.439,154.247 264.412,147.828 267.688 C 144.806 269.230,108.757 269.796,103.800 268.379 C 96.521 266.298,95.390 252.517,102.200 248.884 C 104.910 247.438,143.751 247.148,146.995 248.549 M296.995 248.549 C 303.682 251.439,304.247 264.412,297.828 267.688 C 294.806 269.230,258.757 269.796,253.800 268.379 C 246.521 266.298,245.390 252.517,252.200 248.884 C 254.910 247.438,293.751 247.148,296.995 248.549 " stroke="none" fill="#eca01c" fill-rule="evenodd"></path></g></svg>